<svg width="21" height="17" viewBox="0 0 21 17" fill="none" xmlns="http://www.w3.org/2000/svg">
<path d="M1.30469 6.9565C0.704378 6.9565 0.217731 7.44315 0.217731 8.04346C0.217731 8.64377 0.704378 9.13041 1.30469 9.13041V6.9565ZM20.5515 8.81205C20.976 8.38757 20.976 7.69935 20.5515 7.27486L13.6342 0.357514C13.2097 -0.0669689 12.5215 -0.0669689 12.097 0.357514C11.6725 0.781997 11.6725 1.47022 12.097 1.8947L18.2458 8.04346L12.097 14.1922C11.6725 14.6167 11.6725 15.3049 12.097 15.7294C12.5215 16.1539 13.2097 16.1539 13.6342 15.7294L20.5515 8.81205ZM1.30469 9.13041H19.7829V6.9565H1.30469V9.13041Z" fill="white"/>
</svg>
